<svg xmlns="http://www.w3.org/2000/svg" viewBox="0 0 48 48" width="96px" height="96px"><path fill="#37474f" d="M26,39.444V17.556C26,15.6,27.464,14,29.254,14h10.493C41.536,14,43,15.6,43,17.556v21.889 C43,41.4,41.536,43,39.746,43H29.254C27.464,43,26,41.4,26,39.444z"/><path fill="#78909c" d="M32 39H37V41H32z"/><path fill="#bbdefb" d="M40,37H29c-0.552,0-1-0.448-1-1V18c0-0.552,0.448-1,1-1h11c0.552,0,1,0.448,1,1v18 C41,36.552,40.552,37,40,37z"/><path fill="#37474f" d="M5,39.444V16.556C5,14.6,6.464,13,8.254,13h10.493C20.536,13,22,14.6,22,16.556v22.889 C22,41.4,20.536,43,18.746,43H8.254C6.464,43,5,41.4,5,39.444z"/><path fill="#bbdefb" d="M19.133,16H7.867C7.347,16,7,16.363,7,16.907v19.135C7,36.586,7.347,37,7.867,37h11.267 C19.653,37,20,36.586,20,36.042V16.907C20,16.363,19.653,16,19.133,16z"/><path fill="#78909c" d="M11 39H16V41H11z"/><path fill="#263238" d="M9 13H11V16H9zM26 22H28V24H26zM37 14H39V17H37z"/><path fill="#90caf9" d="M37 27L32 22 28 22 28 24 31.172 24 35.586 28.414 39 31.828 39 27 39 17 37 17zM20 22c-.312 0-.606-.061-.889-.149C17.891 21.47 17 20.345 17 19v-2h-1l-5 5v-6H9v6 4.828l3.414-3.414 2.857-2.857c.564 1.718 2.027 3.025 3.84 3.353C19.401 23.963 19.696 24 20 24V22z"/><path fill="#303f9f" d="M27,17H16l-5,5V8c0-1.657,1.343-3,3-3h14c1.657,0,3,1.343,3,3v6c0,1.657-1.343,3-3,3H27z"/><path fill="#ffab40" d="M32,22l5,5V13c0-1.657-1.343-3-3-3H20c-1.657,0-3,1.343-3,3v1v5c0,1.657,1.343,3,3,3H32z"/><path fill="#263238" d="M20 22H22V24H20z"/></svg>